<svg width="347" height="346" xmlns="http://www.w3.org/2000/svg" xmlns:xlink="http://www.w3.org/1999/xlink" xml:space="preserve" overflow="hidden"><defs><clipPath id="clip0"><rect x="37" y="160" width="347" height="346"/></clipPath></defs><g clip-path="url(#clip0)" transform="translate(-37 -160)"><path d="M0 0 346 0 346 346 0 346Z" fill="#242F3E" fill-rule="evenodd" transform="matrix(1.00289 0 0 1 37 160)"/><path d="M282.839 206.742C285.962 210.799 279.379 227.493 276.43 234.967 275.53 237.233 277.45 238.124 279.457 236.42 292.545 225.313 295.936 202.036 293.245 198.68 290.59 195.341 267.719 192.478 253.775 202.417 251.622 203.948 251.994 206.059 254.372 205.782 262.226 204.813 279.725 202.694 282.839 206.742L282.839 206.742ZM275.556 224.12C280.037 220.85 276.196 215.98 271.629 217.892 241.242 230.555 208.25 236.688 178.209 236.688 133.722 236.688 90.6105 224.673 55.7596 204.726 52.7148 202.979 50.4572 206.067 53.0003 208.308 85.2907 236.991 127.987 254.23 175.372 254.23 209.193 254.23 248.473 243.781 275.556 224.12L275.556 224.12ZM257.011 179.01C252.703 179.01 248.49 178.552 244.39 177.617 240.273 176.675 237.124 175.611 234.936 174.391 233.595 173.664 232.756 172.903 232.419 172.159 232.09 171.398 231.917 170.654 231.917 169.91L231.917 165.853C231.917 164.175 232.548 163.319 233.785 163.319 234.261 163.319 234.763 163.431 235.282 163.604 235.809 163.803 236.501 164.08 237.366 164.452 240.134 165.672 243.136 166.597 246.397 167.255 249.649 167.903 252.893 168.232 256.137 168.232 261.301 168.232 265.289 167.35 268.108 165.568 270.937 163.803 272.338 161.286 272.338 158.016 272.338 155.767 271.603 153.908 270.115 152.403 268.636 150.898 265.885 149.522 261.88 148.207L249.987 144.566C243.958 142.697 239.589 139.99 236.865 136.452 234.14 132.888 232.782 129.022 232.782 124.8 232.782 121.453 233.517 118.495 235.014 115.917 236.484 113.348 238.43 111.159 240.861 109.334 243.326 107.518 246.172 106.151 249.416 105.2 252.651 104.274 256.094 103.798 259.727 103.798 261.543 103.798 263.386 103.919 265.263 104.153 267.122 104.378 268.887 104.689 270.556 105.061 272.226 105.45 273.783 105.866 275.21 106.324 276.646 106.8 277.788 107.267 278.661 107.725 279.795 108.374 280.599 109.032 281.092 109.689 281.568 110.338 281.81 111.22 281.81 112.353L281.81 116.125C281.81 117.811 281.187 118.642 279.933 118.642 279.267 118.642 278.229 118.33 276.784 117.673 272.113 115.606 266.837 114.593 261.033 114.593 256.344 114.593 252.703 115.337 250.125 116.825 247.539 118.33 246.25 120.709 246.25 123.979 246.25 126.21 247.063 128.105 248.698 129.644 250.324 131.184 253.326 132.655 257.728 134.065L269.337 137.715C275.262 139.566 279.492 142.144 282.018 145.396 284.561 148.674 285.832 152.403 285.832 156.598 285.832 160.067 285.114 163.172 283.67 165.923 282.234 168.682 280.253 171.026 277.71 172.99 275.184 174.953 272.157 176.441 268.619 177.47 265.072 178.508 261.206 179.01 257.011 179.01L257.011 179.01ZM151.783 176.899C150.347 176.899 149.301 176.666 148.626 176.147 147.951 175.619 147.38 174.581 146.905 172.99L127.684 111.082C127.226 109.49 126.975 108.426 126.975 107.872 126.975 106.566 127.65 105.909 128.991 105.909L137.009 105.909C138.54 105.909 139.613 106.168 140.244 106.687 140.858 107.189 141.403 108.227 141.879 109.836L155.641 162.774 168.417 109.836C168.798 108.227 169.317 107.189 169.983 106.687 170.649 106.168 171.747 105.909 173.27 105.909L179.887 105.909C181.401 105.909 182.499 106.168 183.174 106.687 183.84 107.189 184.368 108.227 184.748 109.836L197.663 163.475 211.849 109.836C212.325 108.227 212.87 107.189 213.492 106.687 214.124 106.168 215.188 105.909 216.719 105.909L224.314 105.909C225.663 105.909 226.329 106.566 226.329 107.872 226.329 108.227 226.268 108.66 226.191 109.118 226.078 109.602 225.905 110.251 225.602 111.082L205.828 172.99C205.353 174.581 204.773 175.619 204.098 176.147 203.432 176.666 202.377 176.899 200.95 176.899L193.917 176.899C192.395 176.899 191.296 176.64 190.63 176.086 189.964 175.524 189.437 174.434 189.056 172.86L176.289 121.306 163.686 172.86C163.305 174.434 162.769 175.524 162.103 176.086 161.428 176.64 160.338 176.899 158.807 176.899L151.783 176.899ZM85.9741 168.232C88.6642 168.232 91.4755 167.739 94.4424 166.762 97.4007 165.776 99.9784 164.08 102.176 161.641 103.525 160.153 104.442 158.449 104.978 156.529 105.497 154.626 105.748 152.316 105.748 149.6L105.748 146.244C103.378 145.682 100.869 145.24 98.2311 144.912 95.6015 144.592 93.0498 144.419 90.5586 144.419 85.1177 144.419 81.0436 145.491 78.3794 147.645 75.7065 149.79 74.3571 152.861 74.3571 156.901 74.3571 160.629 75.3692 163.44 77.376 165.36 79.3828 167.281 82.2546 168.232 85.9741 168.232L85.9741 168.232ZM119.242 156.053C119.242 159.037 119.545 161.407 120.168 163.189 120.799 164.971 121.681 166.891 122.823 168.933 123.204 169.59 123.394 170.196 123.394 170.741 123.394 171.597 122.866 172.393 121.82 173.128L116.656 176.502C115.894 176.96 115.176 177.202 114.51 177.202 113.637 177.202 112.832 176.83 112.071 176.086 110.912 174.953 109.943 173.725 109.139 172.367 108.308 171.017 107.478 169.434 106.622 167.661 100.212 175.04 92.1934 178.733 82.54 178.733 75.6546 178.733 70.2051 176.83 66.1829 172.99 62.1779 169.166 60.1711 164.028 60.1711 157.593 60.1711 150.785 62.6537 145.284 67.6361 141.132 72.5925 136.98 79.2963 134.895 87.6954 134.895 90.4721 134.895 93.3612 135.111 96.3714 135.526 99.3729 135.942 102.513 136.539 105.748 137.282L105.748 131.409C105.748 125.337 104.476 121.064 101.89 118.581 99.3124 116.107 94.8749 114.879 88.5691 114.879 85.6886 114.879 82.7476 115.216 79.7374 115.917 76.7359 116.618 73.7862 117.526 70.9231 118.642 69.5823 119.204 68.6222 119.559 68.0599 119.697 67.489 119.835 67.0565 119.905 66.7711 119.905 65.6293 119.905 65.0411 119.074 65.0411 117.379L65.0411 113.469C65.0411 112.154 65.2487 111.22 65.6293 110.675 66.0099 110.104 66.7711 109.542 67.9215 108.988 70.7847 107.578 74.2274 106.367 78.2323 105.347 82.2546 104.317 86.5017 103.798 90.9997 103.798 100.74 103.798 107.885 105.987 112.426 110.312 116.958 114.654 119.242 121.211 119.242 129.99L119.242 156.053Z" fill="#FFFFFF" fill-rule="evenodd" transform="matrix(1.00289 0 0 1 37 160)"/></g></svg>